<svg xmlns:dc="http://purl.org/dc/elements/1.1/" xmlns:cc="http://creativecommons.org/ns#" xmlns:rdf="http://www.w3.org/1999/02/22-rdf-syntax-ns#" xmlns:svg="http://www.w3.org/2000/svg" xmlns="http://www.w3.org/2000/svg" id="svg4155" width="99.219002mm" height="22.635mm" version="1.1" viewBox="0 0 99.218996 22.635">
  <metadata id="metadata28">
    <rdf:RDF>
      <cc:Work rdf:about="">
        <dc:format>image/svg+xml</dc:format>
        <dc:type rdf:resource="http://purl.org/dc/dcmitype/StillImage"/>
        <dc:title/>
      </cc:Work>
    </rdf:RDF>
  </metadata>
  <defs id="defs26"/>
  <rect xmlns="http://www.w3.org/2000/svg" style="stroke-width:0;paint-order:normal;background-color:#000;" height="22.635" width="99.219002" y="0" x="0" id="rect1599"/>
  <g id="text817-7-5-4" style="font-size:12.01319885px;line-height:1.25;font-family:'Arial Rounded MT Bold';letter-spacing:0px;word-spacing:0px;fill:#000000;stroke-width:0.37540501" aria-label="Kinetica">
    <path id="path882" style="fill:#cd1542;fill-opacity:1;stroke-width:0.37540501" d="M 30.701804,11.571514 27.506293,7.7993697 H 24.755271 V 11.571514 H 23.157515 V 3.1142221 H 24.755271 V 6.549997 H 27.470254 L 30.653751,3.1142221 H 32.551837 L 28.791706,7.0545514 32.539824,11.571514 Z"/>
    <path id="path884" style="fill:#fff5c9;fill-opacity:1;stroke-width:0.37540501" d="M 33.541424,11.571514 Z M 33.541424,11.571514 V 3.1142221 H 35.13918 V 11.571514 Z"/>
    <path id="path886" style="fill:#ff9733;fill-opacity:1;stroke-width:0.37540501" d="M 36.766217,11.571514 Z M 47.181661,11.571514 38.159748,4.9882812 V 11.571514 H 36.766217 V 3.1142221 H 38.147735 L 46.568987,9.3971251 V 3.1142221 H 47.962518 V 11.571514 Z"/>
    <path id="path888" style="fill:#66cc33;fill-opacity:1;stroke-width:0.37540501" d="M 49.530242,11.571514 Z M 49.530242,11.571514 V 3.1142221 H 58.227798 V 4.3635948 H 51.127997 V 6.4779178 H 57.867402 V 7.7272905 H 51.127997 V 10.322141 H 58.227798 V 11.571514 Z"/>
    <path id="path890" style="fill:#f8c0ed;fill-opacity:0.875;stroke-width:0.37540501" d="M 59.091434,11.571514 Z M 63.524304,11.571514 V 4.3635948 H 59.091434 V 3.1142221 H 69.434798 V 4.3635948 H 65.12206 V 11.571514 Z"/>
    <path id="path892" style="fill:#b46400;fill-opacity:0.75892861;stroke:#000000;stroke-width:0.37540501;stroke-opacity:0" d="M 70.566477,11.571514 Z M 70.566477,11.571514 V 3.1142221 H 72.164233 V 11.571514 Z"/>
    <path id="path894" style="font-family:Pirulen;fill:#029be4;fill-opacity:1;stroke-width:0.37540501" d="M 73.731208,11.571514 Z M 76.386125,11.571514 Q 75.665333,11.571514 75.160779,11.427356 74.656224,11.271184 74.331868,11.006894 74.019525,10.73059 73.875366,10.358181 73.731208,9.9857719 73.731208,9.5292703 V 5.1564659 Q 73.731208,4.6999644 73.875366,4.3275552 74.019525,3.9551461 74.331868,3.6908557 74.656224,3.4145521 75.160779,3.2703937 75.665333,3.1142221 76.386125,3.1142221 H 83.197609 V 4.3635948 H 76.386125 Q 75.328963,4.3635948 75.328963,5.1444527 V 9.5412835 Q 75.328963,10.322141 76.386125,10.322141 H 83.197609 V 11.571514 Z"/>
    <path id="path896" style="font-family:Pirulen;fill:#ae08c0;fill-opacity:1;stroke-width:0.37540501" d="M 83.756594,11.571514 Z M 94.328209,11.571514 89.967418,4.7600304 85.534547,11.571514 H 83.756594 L 89.378771,3.1142221 H 90.544051 L 96.130189,11.571514 Z"/>
  </g>
  <g id="text821-4-4-1" style="font-size:5.76029968px;line-height:1.25;font-family:'Arial Rounded MT Bold';letter-spacing:0px;word-spacing:0px;fill:#ffffff;stroke:#ffffff;stroke-width:0;stroke-miterlimit:4;stroke-dasharray:none" aria-label="Hanging Mobiles">
    <path id="path853" style="font-family:Pirulen;fill:#ffffff;stroke:#ffffff;stroke-width:0;stroke-miterlimit:4;stroke-dasharray:none" d="M 27.24158,19.510258 V 17.666962 H 23.923647 V 19.510258 H 23.157527 V 15.455007 H 23.923647 V 17.067891 H 27.24158 V 15.455007 H 28.0077 V 19.510258 Z"/>
    <path id="path855" style="font-family:Pirulen;fill:#ffffff;stroke:#ffffff;stroke-width:0;stroke-miterlimit:4;stroke-dasharray:none" d="M 28.385899,19.510258 Z M 33.454963,19.510258 31.363974,16.244168 29.238423,19.510258 H 28.385899 L 31.081719,15.455007 H 31.640468 L 34.319008,19.510258 Z"/>
    <path id="path857" style="font-family:Pirulen;fill:#ffffff;stroke:#ffffff;stroke-width:0;stroke-miterlimit:4;stroke-dasharray:none" d="M 34.689377,19.510258 Z M 39.683557,19.510258 35.357572,16.353613 V 19.510258 H 34.689377 V 15.455007 H 35.351812 L 39.389782,18.467643 V 15.455007 H 40.057976 V 19.510258 Z"/>
    <path id="path859" style="font-family:Pirulen;fill:#ffffff;stroke:#ffffff;stroke-width:0;stroke-miterlimit:4;stroke-dasharray:none" d="M 40.780894,19.510258 Z M 42.226729,19.510258 Q 40.780894,19.510258 40.780894,18.634692 V 16.330572 Q 40.780894,15.455007 42.226729,15.455007 H 45.400654 V 16.054078 H 42.226729 Q 41.547014,16.054078 41.547014,16.330572 V 18.634692 Q 41.547014,18.911187 42.226729,18.911187 H 44.018182 Q 44.697898,18.911187 44.697898,18.646213 V 17.298303 H 45.464018 V 18.646213 Q 45.464018,19.510258 44.018182,19.510258 Z"/>
    <path id="path861" style="font-family:Pirulen;fill:#ffffff;stroke:#ffffff;stroke-width:0;stroke-miterlimit:4;stroke-dasharray:none" d="M 46.205026,19.510258 Z M 46.205026,19.510258 V 15.455007 H 46.971146 V 19.510258 Z"/>
    <path id="path863" style="font-family:Pirulen;fill:#ffffff;stroke:#ffffff;stroke-width:0;stroke-miterlimit:4;stroke-dasharray:none" d="M 47.751306,19.510258 Z M 52.745486,19.510258 48.419501,16.353613 V 19.510258 H 47.751306 V 15.455007 H 48.41374 L 52.45171,18.467643 V 15.455007 H 53.119905 V 19.510258 Z"/>
    <path id="path865" style="font-family:Pirulen;fill:#ffffff;stroke:#ffffff;stroke-width:0;stroke-miterlimit:4;stroke-dasharray:none" d="M 53.842824,19.510258 Z M 55.288659,19.510258 Q 53.842824,19.510258 53.842824,18.634692 V 16.330572 Q 53.842824,15.455007 55.288659,15.455007 H 58.462584 V 16.054078 H 55.288659 Q 54.608944,16.054078 54.608944,16.330572 V 18.634692 Q 54.608944,18.911187 55.288659,18.911187 H 57.080112 Q 57.759827,18.911187 57.759827,18.646213 V 17.298303 H 58.525947 V 18.646213 Q 58.525947,19.510258 57.080112,19.510258 Z"/>
    <path id="path867" style="font-family:Pirulen;fill:#ffffff;stroke:#ffffff;stroke-width:0;stroke-miterlimit:4;stroke-dasharray:none" d="M 67.584829,19.510258 V 16.67043 L 65.522642,19.510258 H 64.894769 L 62.826821,16.67619 V 19.510258 H 62.118305 V 15.455007 H 62.832582 L 65.240387,18.767179 67.636672,15.455007 H 68.293346 V 19.510258 Z"/>
    <path id="path869" style="font-family:Pirulen;fill:#ffffff;stroke:#ffffff;stroke-width:0;stroke-miterlimit:4;stroke-dasharray:none" d="M 69.008612,19.510258 Z M 70.281639,19.510258 Q 69.936021,19.510258 69.694088,19.441134 69.452155,19.36625 69.296627,19.239524 69.14686,19.107037 69.077736,18.928467 69.008612,18.749898 69.008612,18.531007 V 16.434258 Q 69.008612,16.215366 69.077736,16.036797 69.14686,15.858228 69.296627,15.731501 69.452155,15.599014 69.694088,15.529891 69.936021,15.455007 70.281639,15.455007 H 72.960178 Q 73.305796,15.455007 73.547729,15.529891 73.789661,15.599014 73.939429,15.731501 74.094957,15.858228 74.164081,16.036797 74.233204,16.215366 74.233204,16.434258 V 18.531007 Q 74.233204,18.749898 74.164081,18.928467 74.094957,19.107037 73.939429,19.239524 73.789661,19.36625 73.547729,19.441134 73.305796,19.510258 72.960178,19.510258 Z M 73.467084,16.428497 Q 73.467084,16.054078 72.960178,16.054078 H 70.281639 Q 69.774732,16.054078 69.774732,16.428497 V 18.536767 Q 69.774732,18.911187 70.281639,18.911187 H 72.960178 Q 73.467084,18.911187 73.467084,18.536767 Z"/>
    <path id="path871" style="font-family:Pirulen;fill:#ffffff;stroke:#ffffff;stroke-width:0;stroke-miterlimit:4;stroke-dasharray:none" d="M 74.955222,19.510258 Z M 74.955222,19.510258 V 15.455007 H 78.255874 Q 78.589971,15.455007 78.826144,15.51837 79.068076,15.575973 79.212084,15.691179 79.361852,15.800625 79.430975,15.967673 79.500099,16.128962 79.500099,16.330572 V 16.704992 Q 79.500099,16.969966 79.367612,17.154295 79.240885,17.332864 79.021994,17.378947 79.252406,17.44231 79.402174,17.597838 79.551942,17.747606 79.551942,18.041381 V 18.634692 Q 79.551942,18.807501 79.488578,18.96879 79.430975,19.124318 79.281207,19.245284 79.1372,19.36625 78.889507,19.441134 78.641814,19.510258 78.267395,19.510258 Z M 78.785822,18.052902 Q 78.785822,17.862812 78.641814,17.787928 78.497807,17.707284 78.267395,17.707284 H 75.721342 V 18.911187 H 78.267395 Q 78.497807,18.911187 78.641814,18.824782 78.785822,18.738378 78.785822,18.490685 Z M 78.733979,16.370894 Q 78.733979,16.203846 78.630294,16.128962 78.526608,16.054078 78.255874,16.054078 H 75.721342 V 17.108213 H 78.255874 Q 78.526608,17.108213 78.630294,17.033329 78.733979,16.958445 78.733979,16.791396 Z"/>
    <path id="path873" style="font-family:Pirulen;fill:#ffffff;stroke:#ffffff;stroke-width:0;stroke-miterlimit:4;stroke-dasharray:none" d="M 80.305549,19.510258 Z M 80.305549,19.510258 V 15.455007 H 81.071669 V 19.510258 Z"/>
    <path id="path875" style="font-family:Pirulen;fill:#ffffff;stroke:#ffffff;stroke-width:0;stroke-miterlimit:4;stroke-dasharray:none" d="M 81.851829,19.510258 Z M 81.851829,19.510258 V 15.455007 H 82.623709 V 18.911187 H 85.91284 V 19.510258 Z"/>
    <path id="path877" style="font-family:Pirulen;fill:#ffffff;stroke:#ffffff;stroke-width:0;stroke-miterlimit:4;stroke-dasharray:none" d="M 86.453319,19.510258 Z M 86.453319,19.510258 V 15.455007 H 90.623776 V 16.054078 H 87.219439 V 17.067891 H 90.450967 V 17.666962 H 87.219439 V 18.911187 H 90.623776 V 19.510258 Z"/>
    <path id="path879" style="font-family:Pirulen;fill:#ffffff;stroke:#ffffff;stroke-width:0;stroke-miterlimit:4;stroke-dasharray:none" d="M 91.199175,19.510258 Z M 91.331661,19.510258 V 18.911187 H 94.856965 Q 95.363871,18.911187 95.363871,18.536767 V 18.0241 Q 95.363871,17.649681 94.856965,17.649681 H 92.472201 Q 92.126583,17.649681 91.88465,17.580557 91.642718,17.505673 91.48719,17.378947 91.337422,17.24646 91.268298,17.067891 91.199175,16.889321 91.199175,16.67043 V 16.434258 Q 91.199175,16.215366 91.268298,16.036797 91.337422,15.858228 91.48719,15.731501 91.642718,15.599014 91.88465,15.529891 92.126583,15.455007 92.472201,15.455007 H 95.905339 V 16.054078 H 92.472201 Q 91.965294,16.054078 91.965294,16.428497 V 16.67619 Q 91.965294,17.05061 92.472201,17.05061 H 94.856965 Q 95.202583,17.05061 95.444515,17.125494 95.686448,17.194617 95.836216,17.327104 95.991744,17.453831 96.060868,17.6324 96.129991,17.810969 96.129991,18.029861 V 18.531007 Q 96.129991,18.749898 96.060868,18.928467 95.991744,19.107037 95.836216,19.239524 95.686448,19.36625 95.444515,19.441134 95.202583,19.510258 94.856965,19.510258 Z"/>
  </g>
  <g style="stroke:#ffffff;fill-opacity:1;fill:none;stroke-width:0.32402191;stroke-miterlimit:4;stroke-dasharray:none" transform="matrix(1.22484,0,0,1.22484,3.1848073,3.1865994)" id="g2551-0-7">
    <rect style="fill:none;stroke:#ffffff;stroke-width:0.32402191;paint-order:stroke fill markers;fill-opacity:1;stroke-miterlimit:4;stroke-dasharray:none" ry="0.4928" rx="0.4928" height="4.928" width="4.928" y="-2.4655001" x="6.9129" transform="rotate(45)" id="1d-1-3-7-7-6-6-0-8-4-0-9-61-3-3"/>
    <rect style="fill:none;stroke:#ffffff;stroke-width:0.32402191;paint-order:stroke fill markers;fill-opacity:1;stroke-miterlimit:4;stroke-dasharray:none" ry="0.49279001" rx="0.49281001" height="4.9278998" width="4.9281001" y="4.1655002" x="4.1675" id="1s-5-6-4-4-0-3-0-8-0-9-8-30-9-0"/>
    <ellipse style="fill:none;stroke:#ffffff;stroke-width:0.32402191;paint-order:stroke fill markers;fill-opacity:1;stroke-miterlimit:4;stroke-dasharray:none" ry="2.2743001" rx="2.2744" cy="6.6294999" cx="6.6314998" height="50" width="50" id="1c-6-3-5-3-2-1-3-8-9-0-2-16-9-6"/>
    <rect style="fill:none;stroke:#ffffff;stroke-width:0.32402191;paint-order:stroke fill markers;fill-opacity:1;stroke-miterlimit:4;stroke-dasharray:none" ry="0.98559999" rx="0.98559999" height="9.8559999" width="9.8559999" y="-4.9295001" x="4.4489002" transform="rotate(45)" id="1d-1-8-5-3-8-1-8-5-2-2-3-0-5-3-5"/>
    <rect style="fill:none;stroke:#ffffff;stroke-width:0.32402191;paint-order:stroke fill markers;fill-opacity:1;stroke-miterlimit:4;stroke-dasharray:none" ry="0.98558003" rx="0.98561001" height="9.8557997" width="9.8561001" y="1.7016" x="1.7035" id="1s-5-7-6-3-5-3-1-0-2-1-5-1-7-5-5"/>
    <ellipse style="fill:none;stroke:#ffffff;stroke-width:0.32402191;paint-order:stroke fill markers;fill-opacity:1;stroke-miterlimit:4;stroke-dasharray:none" ry="4.6697998" rx="4.6698999" cy="6.6294999" cx="6.6314998" height="50" width="50" id="1c-6-9-5-0-7-4-0-4-5-8-8-1-8-4-5"/>
  </g>
  <flowRoot xml:space="preserve" id="flowRoot836" style="font-style:normal;font-variant:normal;font-weight:normal;font-stretch:normal;font-size:32px;line-height:1.25;font-family:Chosence;-inkscape-font-specification:Chosence;letter-spacing:0px;word-spacing:0px;fill:#000000;fill-opacity:1;stroke:none" transform="matrix(0.396875,0,0,0.396875,7.3242001e-6,-6.2370606e-7)"><flowRegion id="flowRegion838"><rect id="rect840" width="49.45153" height="46.561508" x="11.881212" y="8.8659945"/></flowRegion><flowPara id="flowPara842"/></flowRoot>  <flowRoot xml:space="preserve" id="flowRoot857" style="fill:black;fill-opacity:1;stroke:none;font-family:Pirulen;font-style:normal;font-weight:normal;font-size:14.66666667px;line-height:1.25;letter-spacing:0px;word-spacing:0px;-inkscape-font-specification:Pirulen;font-stretch:normal;font-variant:normal;"><flowRegion id="flowRegion859" style="font-size:14.66666667px;"><rect id="rect861" width="253.23717" height="29.916101" x="91.847679" y="-50.909801" style="font-size:14.66666667px;"/></flowRegion><flowPara id="flowPara863"/></flowRoot></svg>