<svg xmlns="http://www.w3.org/2000/svg" width="240" height="125" viewBox="0 0 240 125"><g transform="translate(-20 -20)"><path d="M403.2,603.943c0,4.461-3.91,4.461-3.91,8.924s3.91,4.461,3.91,8.924-3.91,4.463-3.91,8.927,3.91,4.463,3.91,8.927-3.91,4.463-3.91,8.927,3.91,4.464,3.91,8.927-3.91,4.463-3.91,8.929,3.91,4.463,3.91,8.927-3.91,4.463-3.91,8.927,3.91,4.464,3.91,8.927-3.91,4.461-3.91,8.924,3.91,4.463,3.91,8.929-3.91,4.466-3.91,8.929,3.91,4.466,3.91,8.929l-240,.023c0-4.461,3.908-4.461,3.908-8.924s-3.908-4.461-3.908-8.924,3.908-4.461,3.908-8.922-3.908-4.463-3.908-8.924,3.908-4.463,3.908-8.924-3.908-4.461-3.908-8.924,3.908-4.461,3.908-8.924-3.908-4.463-3.908-8.924,3.908-4.463,3.908-8.927-3.908-4.461-3.908-8.922,3.908-4.463,3.908-8.927-3.908-4.463-3.908-8.924,3.908-4.463,3.908-8.924S163.2,608.464,163.2,604Z" transform="translate(-143.195 -583.943)" fill="#d4764b"/><g transform="translate(68.249 47.569)"><g transform="translate(0 -7)"><path d="M2008.877,422.227c0-3.4-1.535-5.255-4.942-6.017-1.434-.321-2.854-.7-4.375-1.079a5.575,5.575,0,0,0,.318-4.811,1.629,1.629,0,0,1,.208-1.834,7.746,7.746,0,0,0-2.052-10.907c-3.429-2.392-7.2-2.34-11.006-1.1-1.682.549-3.275,1.357-4.943,2.061-.27-.42-.531-.857-.823-1.274-1.786-2.555-5.057-4.029-7.7-3.318-1.373.369-2.669.8-4.045.095a1.721,1.721,0,0,0-.616-.051,6.942,6.942,0,0,0-4.99,1.562c-1.442-.5-2.659-.929-3.885-1.336a10.7,10.7,0,0,1-1.743-.516,7.106,7.106,0,0,0-4.595-.869,1.1,1.1,0,0,1-1.318-.675c-.434-.848-.835-1.715-1.307-2.542a7.249,7.249,0,0,0-7.591-3.41,6.13,6.13,0,0,0-4.981,6.047c0,.763,0,1.527,0,2.419-4.547-.391-8.8.583-13.175,1.672.882-4.868-.989-7.77-5.865-8.628.14-.4.23-.649.317-.9,1.251-3.631,1.168-7.086-1.537-10.119a11.617,11.617,0,0,0-6.56-3.441,2.027,2.027,0,0,1-1.5-1.05c-2.191-3.731-6.483-4.27-9.586-1.192a33.537,33.537,0,0,0-4.21,4.614,16.73,16.73,0,0,1-6.436,5.247,31.321,31.321,0,0,0-4.644,3.206,3.3,3.3,0,0,0-1.245,2.692,4.209,4.209,0,0,0,2.917,4.165c-.922,3.24-1.825,6.431-2.747,9.617-.071.245-.221.58-.422.659-1.477.583-2.976,1.112-4.467,1.658a1.3,1.3,0,0,1,.127-.9c1.293-2.082,2.562-4.18,3.9-6.232,1.594-2.436.865-4.971-1.852-6.1a4.281,4.281,0,0,0-4.164.277,34.641,34.641,0,0,0-3.815,2.8c-3.357,2.942-6.045,6.338-7.043,10.773-1.019,4.526.712,8.579,4.631,10.683a15.647,15.647,0,0,0,9.042,1.634c.847-.078,1.689-.211,2.681-.338,0,2.363-.036,4.594.02,6.824.019.771-.3,1.057-.992,1.263-3.573,1.056-7.142,2.127-10.7,3.245a5.17,5.17,0,0,0-3.731,5.071c-.007,3.224.09,6.452-.022,9.673a10.845,10.845,0,0,0,11.242,11.055c5.4-.083,10.8-.018,16.207-.018h102.75c6.53,0,11.259-4.584,11.259-10.907Q2008.878,431.952,2008.877,422.227Zm-29.021-16.138a4.348,4.348,0,0,0,1.356-1.031c2.409-2.432,5.119-4.369,8.618-4.937a7.6,7.6,0,0,1,5.662,1.042c2.273,1.534,2.528,3.97.592,5.9a11.946,11.946,0,0,1-6.242,3c-2.086.43-4.231.582-6.346.882a3.982,3.982,0,0,0-.871.343c.212.241.379.608.645.7a5.782,5.782,0,0,0,2,.438c3.174-.111,6.346-.306,9.518-.474.464-.025.928-.063,1.392-.094l.15.347a5.486,5.486,0,0,1-.954.636,30.423,30.423,0,0,1-9.3,2.305,13.5,13.5,0,0,1-3.3-.216,4.8,4.8,0,0,1-4.059-4.193,8.709,8.709,0,0,0-.416-1.46A2.411,2.411,0,0,1,1979.856,406.089Zm-14.131-6.281c1.431-1.892,3.471-2.394,5.259-.544a3.267,3.267,0,0,0,.367.291,22.059,22.059,0,0,1,2.215-1.181c2.318-.923,4.234,0,4.858,2.374.847,3.23-.214,6.02-2.323,8.473a12.574,12.574,0,0,1-6.531,3.913,1.673,1.673,0,0,1-1.134-.174A9.15,9.15,0,0,1,1965.725,399.809ZM1951.8,403.25c.087-1.145.189-2.292.366-3.425a4.4,4.4,0,0,1,.561-1.512,2.612,2.612,0,0,1,4.339-.575,1.935,1.935,0,0,0,1.609.659,3.359,3.359,0,0,1,3.113,2.01,10.812,10.812,0,0,1,1.266,5.24,12.017,12.017,0,0,1-1.659,6.06c-1.788,2.82-4.581,3.286-7.321,2.357a3.853,3.853,0,0,1-2.719-3.751C1951.327,407.959,1951.616,405.6,1951.8,403.25Zm-10.359.931c.2-3.715.641-7.416.938-11.127a2.736,2.736,0,0,1,2.74-2.738,2.457,2.457,0,0,1,2.323,2.921c-.328,2.272-1.029,4.5-1.3,6.773-.441,3.728-.665,7.48-.974,11.223a4.354,4.354,0,0,0,.1.721l5.385-.693c-.229.289-.312.475-.455.56a39.84,39.84,0,0,1-4.1,2.359c-2.457,1.088-4.247.139-4.509-2.5A49.679,49.679,0,0,1,1941.437,404.181Zm-14.571-4.527c2.662-.391,5.327-.77,8-1.086a9.9,9.9,0,0,1,2.482.064,2.849,2.849,0,0,1,2.483,4.149,13,13,0,0,1-3.744,4.811c-1.794,1.591-3.695,3.065-5.547,4.594-.228.188-.437.4-.656.6l.131.325,10.528-1.8c-.333.422-.452.714-.668.826-3.4,1.758-6.82,3.471-10.754,3.724-1.237.08-2.438-.025-3.1-1.33a2.335,2.335,0,0,1,.5-2.817c.928-.994,2-1.858,3.02-2.77,2.267-2.033,4.544-4.054,6.8-6.1a7.877,7.877,0,0,0,.809-1.062,9.191,9.191,0,0,0-4.562.044c-1.235.291-2.42.781-3.637,1.152a7.208,7.208,0,0,1-1.8.4,1.755,1.755,0,0,1-1.862-1.664A1.839,1.839,0,0,1,1926.866,399.653Zm-8.009-8.164a2.774,2.774,0,0,1,2.463,3.355c-.461,1.555-1.1,3.06-1.646,4.59-.121.338-.2.692-.315,1.125l4.729.251.172.336a4.355,4.355,0,0,1-.836.787c-1.484.8-3.006,1.525-4.486,2.327a1.451,1.451,0,0,0-.745.84c-.334,2.72-.589,5.45-.885,8.174-.088.808.281.983,1.034.906,2.087-.214,4.179-.374,6.435-.57-.08.258-.076.6-.244.734-2.188,1.695-4.521,3.172-7.363,3.476-2.123.227-3.517-.863-3.644-2.97-.141-2.352.02-4.723.076-7.085.015-.638.125-1.273.194-1.931a1.316,1.316,0,0,0-.39-.187,1.79,1.79,0,0,1-1.755-1.465,1.993,1.993,0,0,1,.988-2.267,1.947,1.947,0,0,1,.731-.371c1.345-.162,1.66-1.058,1.774-2.187.176-1.749.456-3.489.615-5.239A2.907,2.907,0,0,1,1918.857,391.49ZM1881.4,411.4a20.659,20.659,0,0,1-5.557.091c-4.317-.594-6.211-3.82-4.829-7.9a19.5,19.5,0,0,1,5.453-7.694c.643-.614,1.328-1.189,2.014-1.758a6.016,6.016,0,0,1,.813-.487l.216.219c-.21.273-.44.533-.625.82-1.362,2.114-2.758,4.209-4.045,6.365a6.77,6.77,0,0,0-.677,2.227c-.427,2.309,1.025,3.977,3.416,4.1,3.595.179,6.768-1.147,9.906-2.6a1.289,1.289,0,0,0,.59-.858,53.913,53.913,0,0,1,6.486-18.546,7.065,7.065,0,0,0,.287-.771l-5.923,2.747-.141-.217a3.4,3.4,0,0,1,.506-.546c2.2-1.529,4.429-3.019,6.606-4.577a14.886,14.886,0,0,0,2.36-2.06c1.632-1.8,3.142-3.7,4.78-5.492a2.3,2.3,0,0,1,3.451-.362c.938.9.857,2.16-.212,3.329-.108.118-.2.252-.423.541a15.211,15.211,0,0,1,2.175-.178,21.623,21.623,0,0,1,4.7.511,5.161,5.161,0,0,1,3.639,6.341c-.764,3.7-2.943,6.617-5.475,9.3a68.883,68.883,0,0,1-18.437,13.546,1.438,1.438,0,0,0-.958,1.372c-.078,2.541-.36,5.082-.3,7.618a14.591,14.591,0,0,0,1.01,3.578,8.349,8.349,0,0,1,.671,2.4,2.732,2.732,0,0,1-2.881,2.5,2.811,2.811,0,0,1-2.7-2.721c-.06-1.831-.019-3.666-.02-5.5,0-2.233,0-4.466,0-6.751A57.759,57.759,0,0,1,1881.4,411.4Zm16.825,5.634a1.244,1.244,0,0,0,1.643.864c1.711-.382,3.411-.836,5.075-1.382,1.273-.418,2.481-1.024,3.722-1.539.3-.123.609-.215.914-.322l.159.351c-3.263,2.771-6.388,5.794-11.095,6.086a3.851,3.851,0,0,1-3.246-1.319,26.515,26.515,0,0,1-2.6-3.517,2.68,2.68,0,0,1,1.083-3.7,3.323,3.323,0,0,0,.984-1.117,23.59,23.59,0,0,1,5.858-7.185,9,9,0,0,1,6.274-2.247,3.669,3.669,0,0,1,3.481,4.7,9.094,9.094,0,0,1-4.156,5.4c-2.214,1.416-4.639,2.518-6.977,3.747C1898.829,416.127,1898.019,416.151,1898.225,417.031Zm-6.686,29.31a4.023,4.023,0,0,1-.685.859c-.219-.291-.556-.554-.637-.878-.655-2.624-1.253-5.261-1.891-7.889a9.364,9.364,0,0,0-.477-1.216l-.323-.048a32.84,32.84,0,0,0-.929,3.817c-.216,1.7-.169,3.439-.331,5.152a1.348,1.348,0,0,1-.758.979c-.623.163-.894-.316-.911-.919a24.916,24.916,0,0,1,1.948-10.506,2.805,2.805,0,0,1,.5-.882,7.208,7.208,0,0,1,1.025-.746c.158.333.339.658.471,1,.511,1.325,1.064,2.639,1.491,3.991.311.984.447,2.021.689,3.17.624-2.384,1.152-4.58,1.792-6.745a4.935,4.935,0,0,1,1.086-1.822,2.311,2.311,0,0,1,1.335-.6c.577-.077.761.319.415.776-2.549,3.362-2.9,7.386-3.587,11.312A5.376,5.376,0,0,1,1891.539,446.341Zm9.151.03a1.331,1.331,0,0,1-1.845-.212,6.6,6.6,0,0,1-.441-.906,18.776,18.776,0,0,1-1.917,1.431,1.955,1.955,0,0,1-3.057-2.215,10.387,10.387,0,0,1,1.966-4.641,4.981,4.981,0,0,1,1.017-1,1.786,1.786,0,0,1,2.985.994,10.7,10.7,0,0,1,.153,3.111,2.466,2.466,0,0,0,.76,2.2C1900.7,445.471,1901.214,445.793,1900.69,446.371Zm6.738-2.978a4.408,4.408,0,0,1-3.154,3.079c-1.028.241-1.593-.035-1.9-1.035a8.2,8.2,0,0,1-.322-1.888c-.053-.907-.014-1.819-.014-2.493l-1.263-.923c.327-.341.675-.664.974-1.027a3.554,3.554,0,0,0,.688-1.03c.3-.894.461-1.837.787-2.721.129-.352.608-.88.821-.836a1.955,1.955,0,0,1,1.007.84,3.45,3.45,0,0,1,.281,1.117c-1.191.1-1.313.822-1.252,1.731l2.3-.3.156.4a16.388,16.388,0,0,1-1.969,1.07,1.364,1.364,0,0,0-.993,1.551c.058.977-.022,1.963.059,2.937.028.344.29.862.559.944a1.316,1.316,0,0,0,1.059-.4c.414-.438.641-1.043,1.039-1.5a2.82,2.82,0,0,1,.923-.467C1907.3,442.757,1907.525,443.133,1907.428,443.392Zm8.052.694a3.915,3.915,0,0,1,.131,1.178,1.05,1.05,0,0,1-.689.623c-.192.046-.59-.221-.694-.44a13.321,13.321,0,0,1-.553-1.782c-.363.643-.579,1.091-.854,1.5a2.317,2.317,0,0,1-2.463,1.094c-1.167-.306-1.35-1.185-1.245-2.15.143-1.307.372-2.606.587-3.9.147-.888.091-1.026-.7-1.336a1.777,1.777,0,0,1,2.036-1.336.887.887,0,0,1,.44.735c-.189,1.505-.462,3-.684,4.5-.076.515-.085,1.04-.125,1.561l.334.194c.351-.342.861-.623,1.026-1.036.613-1.539,1.114-3.12,1.653-4.686.132-.383.144-.871.4-1.128a3.7,3.7,0,0,1,1.2-.534c.169.4.517.817.473,1.192-.1.863-.534,1.7-.569,2.557A21.9,21.9,0,0,0,1915.481,444.086Zm6.01-4.441c-2.248.576-2.91,1.646-2.444,3.971.066.331.28.672.232.978a4.8,4.8,0,0,1-.5,1.146c-.379-.218-.995-.362-1.092-.667a7.913,7.913,0,0,1-.411-2.585,11.031,11.031,0,0,1,.5-2.979c.2-.649.267-1.064-.472-1.286.611-.964,1.894-1.6,2.617-1.225.282.146.382.63.67,1.149a2.522,2.522,0,0,1,.792-.125,5.037,5.037,0,0,1,1.076.318c-.193.395-.37.8-.591,1.177C1921.82,439.6,1921.623,439.611,1921.491,439.645Zm3.4,3.905a.806.806,0,0,0,.772.152c.687-.443,1.293-1.006,1.972-1.462a4.207,4.207,0,0,1,1.048-.357c.009.4.165.87,0,1.179a5.774,5.774,0,0,1-4.037,2.274c-.891.079-1.325-.43-1.56-1.25a1.437,1.437,0,0,0-.54-.8c-.677-.406-.794-.9-.054-1.258.887-.431,1.03-1.148,1.3-1.922a12.6,12.6,0,0,1,1.263-2.762,1.955,1.955,0,0,1,3.085-.6c1.245,1.017,1.428,2.276.322,3.324a30.688,30.688,0,0,1-2.853,2.178c-.219.163-.543.259-.658.47A.978.978,0,0,0,1924.892,443.55Zm12.11,1.187c-.9.016-1.423-.71-1.245-1.91.151-1.027.421-2.038.7-3.352a17.907,17.907,0,0,1-1.474,1.8,3.3,3.3,0,0,1-1.11.435,8.071,8.071,0,0,1-.1-1.326c.014-.2.292-.364.426-.56.78-1.146,1.589-2.276,2.313-3.456.295-.481.582-.989,1.151-.666a1.468,1.468,0,0,1,.647,1.18c-.221,1.434-.626,2.84-.918,4.266a16.362,16.362,0,0,0-.176,1.753l.329.119,1.552-2.309c.168.129.317.186.363.288C1940.021,442.272,1938.41,444.712,1937,444.737Zm2.227-12.788a9.637,9.637,0,0,1-1.744-.848,3.376,3.376,0,0,1-.673-.783l1-.547a14.849,14.849,0,0,1,2.19,1.1c.26.185.225.768.325,1.17A4.054,4.054,0,0,1,1939.23,431.95Zm6.909,10.42a6.717,6.717,0,0,1-4.556,2.137c-.785.073-1.09-.454-1.1-1.168-.011-1.011.385-1.458,1.048-1.484.443.476.655.917.95.979a2.309,2.309,0,0,0,2.331-1.667c-.641-.1-1.272-.209-1.907-.288-1.792-.223-2.349-1.111-1.635-2.743a5.428,5.428,0,0,1,3.259-2.954,2.611,2.611,0,0,1,1.731.272c.205.093.307.8.178,1.115-.182.447-.584.39-1.013.077a1.229,1.229,0,0,0-1-.054,1.99,1.99,0,0,0-.944.75,3.874,3.874,0,0,0-.686,1.814c0,.223.978.468,1.526.657a8.416,8.416,0,0,0,.918.15A1.432,1.432,0,0,1,1946.139,442.37Zm15.722.776c-.556.756-1.294.409-1.792-.083-1.771-1.749-3.484-3.555-5.217-5.341-.114-.118-.214-.25-.516-.6-.237,1.644-.425,3.039-.645,4.43-.084.533-.231,1.056-.363,1.581-.128.508-.437,1.01-.979.711a1.492,1.492,0,0,1-.546-1.224c.1-1.1.443-2.183.573-3.286.3-2.587.532-5.182.808-7.772a4.154,4.154,0,0,1,.308-1.372c.131-.268.531-.41.81-.608.148.268.42.534.423.8.015,1.184-.088,2.37-.063,3.553a3.021,3.021,0,0,0,.373,1.514,20.622,20.622,0,0,0,6.154,6.09C1961.807,441.944,1962.428,442.374,1961.861,443.146Zm-3.129-14a15.368,15.368,0,0,0-2.091,1.406,5.762,5.762,0,0,1-1.024.41c-.048-.39-.269-.868-.116-1.154a3.786,3.786,0,0,1,3.015-2.074c2.495-.013,3.553,1.341,2.9,3.287a10.382,10.382,0,0,1-4.034,4.9c-.212.157-.7-.046-1.061-.082.039-.329-.042-.754.137-.97.741-.89,1.608-1.681,2.337-2.579a7.424,7.424,0,0,0,1.128-1.923C1960.273,429.481,1959.607,428.78,1958.732,429.146Zm8.231,11.825a4.593,4.593,0,0,1-1.126,1.873,1.981,1.981,0,0,1-1.677.3,1.73,1.73,0,0,1-.775-1.349,10.922,10.922,0,0,1,.367-2.488c.1-.515.292-1.014.529-1.81a6.545,6.545,0,0,1-1.426,1.093,3.39,3.39,0,0,1-1.3-.085,4.772,4.772,0,0,1,.495-.981c.8-.963,1.646-1.888,2.466-2.836.132-.153.175-.426.331-.5.476-.237,1.061-.659,1.468-.545.7.2.4.87.232,1.387-.635,2-1.277,3.993-1.888,6a3.24,3.24,0,0,0-.011.908l.374.107a11.368,11.368,0,0,1,.743-1.408,5.382,5.382,0,0,1,.9-.813C1966.771,440.207,1967.076,440.664,1966.963,440.972Zm-2.706-13.047a.657.657,0,0,1,.54-.346,30.681,30.681,0,0,1,3.015.882.809.809,0,0,1,.325.744c-.1.243-.468.382-.836.65-.965-.455-1.895-.871-2.795-1.341A.652.652,0,0,1,1964.257,427.925Zm10.3,13.313a2.987,2.987,0,0,0-1.342,2.157,14.413,14.413,0,0,1-.979,3.083,3.28,3.28,0,0,1-4,1.933c-.7-.131-1.082-.518-.963-1.193a3.414,3.414,0,0,1,.579-1.588,19.361,19.361,0,0,1,3.264-3.372c1.313-.936,1.181-2.128,1.193-3.433a4.333,4.333,0,0,1-.943,1,3.642,3.642,0,0,1-1.92.647c-.9-.113-1.264-.927-1.339-1.822-.221-2.642,1.531-5.293,3.8-5.705a1.506,1.506,0,0,1,1.957,1.486c.018.616-.145,1.211.513,1.717.227.174.074.9,0,1.356-.126.767-.333,1.521-.495,2.283a1.29,1.29,0,0,0,.054.367l1.381.078C1974.982,440.684,1974.835,441.065,1974.554,441.238Zm10.639-1.979a11.249,11.249,0,0,1-1.915,2.713,1.017,1.017,0,0,1-1.821-.64,26.969,26.969,0,0,1,.1-4.021c.032-.572.2-1.135.245-1.707a4.96,4.96,0,0,0-.136-1.025l-.321-.1a8.225,8.225,0,0,0-.849,1.277c-.709,1.652-1.325,3.342-2.052,4.985a17.035,17.035,0,0,1-1.236,2.015l-.465-.027a8.491,8.491,0,0,1-.669-1.978,25.978,25.978,0,0,1,2.633-13.4,5.133,5.133,0,0,1,.607-.943c.394-.5.836-.939,1.57-.576.627.31.754.791.424,1.842-1.24-.676-1.49.273-1.82,1.1a26.986,26.986,0,0,0-1.893,8.694c-.016.315.026.633.041.95l.209.034a15.741,15.741,0,0,1,.653-1.751,24.316,24.316,0,0,1,1.743-3.087,2.96,2.96,0,0,1,1.505-.979,1.165,1.165,0,0,1,1.633,1.243c-.084,1.447-.326,2.885-.488,4.328-.059.528-.08,1.061-.118,1.591l.3.153,1.468-2.024.318-.037C1984.992,438.354,1985.361,438.944,1985.193,439.259ZM1995.6,437.3c-.9,2.184-2.914,4.482-5.794,4.6-1.431.06-2.2-.346-2.532-1.708a29.316,29.316,0,0,1-.474-4.007,9.645,9.645,0,0,1-.006-1.059l-2.219-.834.031-.451c.555-.2,1.1-.437,1.669-.577a1.225,1.225,0,0,0,1.028-1.077,18.771,18.771,0,0,1,1.085-3.27c.171-.394.757-.929,1.067-.88a2.86,2.86,0,0,1,1.337.945c.209.214.23.606.406,1.124l-1.541-.265-.545,2.462,4.113-.354q.071.278.141.556c-.783.339-1.544.745-2.354,1-2.362.754-2.392.732-2.295,3.185a9.522,9.522,0,0,0,.35,2.4c.341,1.11,1.223,1.516,2.17.832a17.07,17.07,0,0,0,2.479-2.636c.223-.249.329-.657.594-.793a1.338,1.338,0,0,1,1.041-.045A.893.893,0,0,1,1995.6,437.3Zm9.509-15.874c-1.766-.187-3.53-.4-5.3-.556-2.995-.27-5.988-.646-8.99-.733-7.437-.215-14.883-.522-22.315-.362-7.566.163-15.128.74-22.676,1.326-5.853.455-11.69,1.14-17.52,1.841q-7.559.908-15.083,2.093-10.737,1.7-21.438,3.616c-6.552,1.184-13.075,2.525-19.612,3.789a4.289,4.289,0,0,1-.8.006l-.176-.266a4.5,4.5,0,0,1,1.058-.73c3.836-1.249,7.642-2.613,11.538-3.652,7.86-2.1,15.722-4.228,23.675-5.938,7.378-1.586,14.854-2.775,22.324-3.9a231.934,231.934,0,0,1,35.978-2.516,140.244,140.244,0,0,1,28.747,2.745c3.264.7,6.454,1.738,9.675,2.633a8.505,8.505,0,0,1,.982.406Z" transform="translate(-1866.2 -369.015)" fill="#f8f6f3"/><path d="M2008.933,433.935a18.481,18.481,0,0,0,2.675-4.733c.651-1.606-.255-2.857-1.968-3.194a4.382,4.382,0,0,0-1.506-.142c-1.929.321-3.862.653-5.758,1.124a3.425,3.425,0,0,0-1.683,1.155,36.284,36.284,0,0,0-5.221,9.032,47.638,47.638,0,0,0-2.9,10.04,2.216,2.216,0,0,0,.451-.12C1998.91,443.409,2004.507,439.355,2008.933,433.935Z" transform="translate(-1966.229 -414.265)" fill="#f8f6f3"/><path d="M2034.181,546.8c-.518-.753-1.368-.587-2.143-.36a1.731,1.731,0,0,0-.368.171,11.642,11.642,0,0,0-4.615,5.625,17,17,0,0,0,6.5-3.508C2034.1,548.225,2034.721,547.589,2034.181,546.8Z" transform="translate(-1993.588 -510.149)" fill="#f8f6f3"/><path d="M2442.844,538.413a29.959,29.959,0,0,0,4.228-.87c.457-.139.742-.844,1.106-1.289-.491-.349-.978-.708-1.479-1.042a.664.664,0,0,0-.4-.06,7.607,7.607,0,0,0-5.407,3.193A10.269,10.269,0,0,0,2442.844,538.413Z" transform="translate(-2320.995 -501.307)" fill="#f8f6f3"/><path d="M2293.5,532.068c.383.164,1.319-.409,1.7-.895a10.982,10.982,0,0,0,2.279-6.077,3.75,3.75,0,0,0-2.145-3.9c-.4.689-.814,1.376-1.206,2.075a12.059,12.059,0,0,0-1.715,7.075A2.366,2.366,0,0,0,2293.5,532.068Z" transform="translate(-2203.73 -490.197)" fill="#f8f6f3"/><path d="M2353.3,534.644c3.1-2.366,5.539-5,6.483-8.736a4.442,4.442,0,0,0,.116-1.7c-.048-.322-.437-.817-.693-.831a1.476,1.476,0,0,0-1.044.577,7.222,7.222,0,0,0-.525,1.309,5.846,5.846,0,0,1-.8,1.389,2.328,2.328,0,0,1-2.79.466c-.935-.617-.749-1.524-.46-2.373a18.619,18.619,0,0,1,.906-1.936,1.193,1.193,0,0,0-1.747.012,4.175,4.175,0,0,0-1.147,1.956,21.41,21.41,0,0,0-.181,4.723A10.715,10.715,0,0,0,2353.3,534.644Z" transform="translate(-2250.397 -491.189)" fill="#f8f6f3"/><path d="M2365.37,690.623a4.644,4.644,0,0,0-2.073,3.186,1.02,1.02,0,0,0,.363.757.82.82,0,0,0,.772-.231,33.846,33.846,0,0,0,1.716-3.034c.093-.188-.174-.554-.273-.836C2365.561,690.562,2365.463,690.587,2365.37,690.623Z" transform="translate(-2259.941 -624.987)" fill="#f8f6f3"/><path d="M2360.262,738.526c1.555.321,2.8-1.113,2.648-3.02C2361.911,736.49,2360.813,737.214,2360.262,738.526Z" transform="translate(-2257.542 -660.853)" fill="#f8f6f3"/><path d="M2151.879,709.352c.15-.195-.158-.743-.257-1.129-.342.12-.854.141-.994.379a17.321,17.321,0,0,0-.933,2.162l.433.3A15.63,15.63,0,0,0,2151.879,709.352Z" transform="translate(-2090.758 -639.128)" fill="#f8f6f3"/><path d="M2005.72,718.472a33.008,33.008,0,0,0-1.468,3.516.944.944,0,0,0,.207.808.8.8,0,0,0,.74-.03,5.4,5.4,0,0,0,2.471-3.929l-.808-1.2C2006.471,717.911,2005.91,718.1,2005.72,718.472Z" transform="translate(-1975.525 -646.625)" fill="#f8f6f3"/></g></g></g></svg>